<?xml version="1.0" encoding="UTF-8" standalone="no"?>
<!-- Created with Inkscape (http://www.inkscape.org/) -->

<svg
   xmlns:dc="http://purl.org/dc/elements/1.1/"
   xmlns:cc="http://creativecommons.org/ns#"
   xmlns:rdf="http://www.w3.org/1999/02/22-rdf-syntax-ns#"
   xmlns:svg="http://www.w3.org/2000/svg"
   xmlns="http://www.w3.org/2000/svg"
   xmlns:sodipodi="http://sodipodi.sourceforge.net/DTD/sodipodi-0.dtd"
   xmlns:inkscape="http://www.inkscape.org/namespaces/inkscape"
   width="233.21638mm"
   height="49.827885mm"
   viewBox="0 0 233.21638 49.827885"
   version="1.1"
   id="svg8"
   inkscape:version="0.92.1 r"
   sodipodi:docname="tinymongo.svg">
  <defs
     id="defs2" />
  <sodipodi:namedview
     id="base"
     pagecolor="#ffffff"
     bordercolor="#666666"
     borderopacity="1.0"
     inkscape:pageopacity="0.0"
     inkscape:pageshadow="2"
     inkscape:zoom="0.98994949"
     inkscape:cx="396.39265"
     inkscape:cy="-66.077829"
     inkscape:document-units="mm"
     inkscape:current-layer="layer1"
     showgrid="false"
     showguides="true"
     inkscape:guide-bbox="true"
     fit-margin-top="2"
     fit-margin-left="2"
     fit-margin-right="2"
     fit-margin-bottom="2"
     inkscape:window-width="1920"
     inkscape:window-height="1020"
     inkscape:window-x="1920"
     inkscape:window-y="31"
     inkscape:window-maximized="1" />
  <metadata
     id="metadata5">
    <rdf:RDF>
      <cc:Work
         rdf:about="">
        <dc:format>image/svg+xml</dc:format>
        <dc:type
           rdf:resource="http://purl.org/dc/dcmitype/StillImage" />
        <dc:title></dc:title>
      </cc:Work>
    </rdf:RDF>
  </metadata>
  <g
     inkscape:label="Layer 1"
     inkscape:groupmode="layer"
     id="layer1"
     transform="translate(9.0748632,-17.132042)">
    <g
       id="Documents"
       transform="matrix(0.47080112,0,0,0.47080112,-10.370471,18.404682)">
      <rect
         style="fill:#343f4a;stroke:#000000;stroke-miterlimit:10"
         x="14.5"
         y="21.5"
         stroke-miterlimit="10"
         width="50"
         height="66"
         id="rect4581" />
      <rect
         style="fill:#587896;stroke:#3c5166;stroke-miterlimit:10"
         x="7.5"
         y="15.5"
         stroke-miterlimit="10"
         width="50"
         height="66"
         id="rect4583" />
    </g>
    <path
       id="path4586"
       d="M 36.445522,53.42711 H 31.742218 V 35.159552 h -6.023429 v -3.91424 h 16.750162 v 3.91424 h -6.023429 z"
       inkscape:connector-curvature="0"
       style="fill:#282e33;stroke-width:0.47080112" />
    <path
       id="path4588"
       d="m 44.544713,32.079571 c 0,-1.507034 0.839439,-2.260787 2.518786,-2.260787 1.678877,0 2.518786,0.753753 2.518786,2.260787 0,0.718443 -0.209977,1.276813 -0.629461,1.676523 -0.419954,0.39971 -1.049416,0.59933 -1.888854,0.59933 -1.679818,0 -2.519257,-0.758461 -2.519257,-2.275853 z m 4.82477,21.347539 H 44.741979 V 36.464142 h 4.627504 z"
       inkscape:connector-curvature="0"
       style="fill:#282e33;stroke-width:0.47080112" />
    <path
       id="path4590"
       d="m 69.105466,53.42711 h -4.627504 v -9.90754 c 0,-1.22361 -0.21751,-2.14168 -0.65253,-2.75372 -0.435021,-0.61204 -1.12804,-0.91806 -2.078587,-0.91806 -1.294704,0 -2.230185,0.4322 -2.806917,1.29706 -0.576731,0.86486 -0.864861,2.29845 -0.864861,4.30124 v 7.98055 H 53.447562 V 36.464142 h 3.535246 l 0.621928,2.169448 h 0.257999 c 0.515998,-0.81919 1.226437,-1.43876 2.131788,-1.85872 0.90488,-0.419483 1.934522,-0.62946 3.087514,-0.62946 1.972185,0 3.469333,0.53342 4.490971,1.60072 1.021639,1.06731 1.532458,2.6073 1.532458,4.61998 z"
       inkscape:connector-curvature="0"
       style="fill:#282e33;stroke-width:0.47080112" />
    <path
       id="path4592"
       d="m 70.66523,36.464142 h 5.067706 l 3.20145,9.543608 c 0.27306,0.82955 0.46044,1.8107 0.56119,2.94345 h 0.0909 c 0.11111,-1.04141 0.32862,-2.02303 0.65253,-2.94345 l 3.14072,-9.543608 h 4.9613 l -7.17642,19.132418 c -0.65771,1.76974 -1.59555,3.09504 -2.81445,3.97497 -1.2189,0.87993 -2.64261,1.32013 -4.27111,1.32013 -0.79895,0 -1.5833,-0.0862 -2.35165,-0.258 v -3.67178 c 0.55602,0.13135 1.16288,0.19727 1.82059,0.19727 0.81919,0 1.53481,-0.25047 2.14685,-0.75093 0.61204,-0.50046 1.08991,-1.25704 1.43359,-2.26832 l 0.27307,-0.83426 z"
       inkscape:connector-curvature="0"
       style="fill:#282e33;stroke-width:0.47080112" />
    <g
       id="g4600"
       transform="matrix(0.47080112,0,0,0.47080112,17.977743,81.904682)" />
    <g
       id="g4602"
       transform="matrix(0.47080112,0,0,0.47080112,17.977743,81.904682)" />
    <g
       id="g4604"
       transform="matrix(0.47080112,0,0,0.47080112,17.977743,81.904682)" />
    <g
       id="g4606"
       transform="matrix(0.47080112,0,0,0.47080112,17.977743,81.904682)" />
    <g
       id="g4608"
       transform="matrix(0.47080112,0,0,0.47080112,17.977743,81.904682)" />
    <g
       id="g4610"
       transform="matrix(0.47080112,0,0,0.47080112,17.977743,81.904682)" />
    <g
       id="g4612"
       transform="matrix(0.47080112,0,0,0.47080112,17.977743,81.904682)" />
    <g
       id="g4614"
       transform="matrix(0.47080112,0,0,0.47080112,17.977743,81.904682)" />
    <g
       id="g4616"
       transform="matrix(0.47080112,0,0,0.47080112,17.977743,81.904682)" />
    <g
       id="g4618"
       transform="matrix(0.47080112,0,0,0.47080112,17.977743,81.904682)" />
    <g
       id="g4620"
       transform="matrix(0.47080112,0,0,0.47080112,17.977743,81.904682)" />
    <g
       id="g4622"
       transform="matrix(0.47080112,0,0,0.47080112,17.977743,81.904682)" />
    <g
       id="g4624"
       transform="matrix(0.47080112,0,0,0.47080112,17.977743,81.904682)" />
    <g
       id="g4626"
       transform="matrix(0.47080112,0,0,0.47080112,17.977743,81.904682)" />
    <g
       id="g4628"
       transform="matrix(0.47080112,0,0,0.47080112,17.977743,81.904682)" />
    <path
       style="fill:#442d22;fill-rule:evenodd;stroke-width:0.44505885"
       inkscape:connector-curvature="0"
       d="m 176.67608,51.816893 c -1.02675,-0.123282 -1.76599,-0.287062 -2.66946,-0.697854 -0.12328,-0.08234 -0.3289,-0.492678 -0.3289,-0.657351 -0.0819,-1.437539 -0.0819,-5.544542 -0.0819,-8.295898 0,-2.218172 -0.3694,-4.148393 -1.31426,-5.503598 -1.10908,-1.561265 -2.7104,-2.464291 -4.76435,-2.464291 -1.80694,0 -4.23029,1.231923 -6.24284,2.956973 -0.041,0.04094 -0.3694,0.328898 -0.32845,-0.123282 0,-0.451735 0.0823,-1.355205 0.12327,-1.971612 0.0414,-0.575013 -0.2875,-0.862079 -0.2875,-0.862079 -1.31426,0.656907 -5.01047,1.519433 -6.36612,1.642267 -0.98536,0.206064 -1.23193,1.150477 -0.20473,1.478931 h 0.0409 c 1.1082,0.328453 1.84789,0.698298 2.42246,1.068142 0.41079,0.328454 0.36984,0.780189 0.36984,1.150033 0.0409,3.079807 0.0409,7.803216 -0.0819,10.390789 -0.0409,1.026751 -0.32845,1.396148 -1.06814,1.560376 l 0.0823,-0.04095 c -0.57502,0.123281 -1.02675,0.246118 -1.72505,0.328453 -0.24657,0.246563 -0.24657,1.560821 0,1.848331 0.45173,0 2.83369,-0.123282 4.80575,-0.123282 2.7104,0 4.107,0.123282 4.80485,0.123282 0.28751,-0.328454 0.36984,-1.560821 0.20562,-1.848331 -0.78064,-0.04094 -1.35565,-0.122834 -1.88928,-0.287507 -0.73924,-0.164672 -0.94486,-0.533625 -0.98625,-1.396151 -0.0814,-2.177226 -0.0814,-6.776909 -0.0814,-9.898107 0,-0.862526 0.24612,-1.273314 0.49224,-1.519878 0.94486,-0.821131 2.46474,-1.396148 3.81994,-1.396148 1.31426,0 2.17634,0.410788 2.83369,0.944858 0.90347,0.7388 1.19098,1.80694 1.31426,2.587128 0.20517,1.765993 0.12328,5.257035 0.12328,8.296342 0,1.642712 -0.12328,2.053503 -0.7388,2.258675 -0.28795,0.123281 -1.02719,0.287954 -1.88972,0.369397 -0.28751,0.287954 -0.20517,1.561268 0,1.848775 1.19098,0 2.58758,-0.123282 4.64108,-0.123282 2.54618,0 4.18934,0.123282 4.84669,0.123282 0.20472,-0.246563 0.28706,-1.437539 0.12283,-1.766437 z m 11.3766,-15.688326 c -2.17634,0 -3.53199,1.683658 -3.53199,4.311729 0,2.669911 1.19098,5.750161 4.55874,5.750161 0.57501,0 1.64316,-0.246563 2.13539,-0.821579 0.78063,-0.738797 1.31471,-2.217728 1.31471,-3.778549 0,-3.408704 -1.68411,-5.462207 -4.47685,-5.462207 z m -0.28751,18.152617 c -0.82114,0 -1.3966,0.246563 -1.76599,0.452179 -1.72505,1.108197 -2.50524,2.176336 -2.50524,3.450095 0,1.190532 0.45173,2.134949 1.43754,2.956528 1.19098,1.026748 2.83369,1.519875 4.92814,1.519875 4.18934,0 6.03766,-2.259119 6.03766,-4.476403 0,-1.561265 -0.78063,-2.588017 -2.38195,-3.162589 -1.15003,-0.493122 -3.24448,-0.739685 -5.75016,-0.739685 z m 0.28751,10.678742 c -2.50524,0 -4.31262,-0.534073 -5.873,-1.725049 -1.51988,-1.150033 -2.17678,-2.875079 -2.17678,-4.066059 0,-0.328453 0.0823,-1.232367 0.82158,-2.053499 0.45129,-0.493126 1.43754,-1.437543 3.77855,-3.039307 0.0819,-0.04095 0.12283,-0.08189 0.12283,-0.164673 0,-0.08189 -0.0823,-0.164225 -0.16422,-0.204727 -1.93022,-0.739242 -2.50524,-1.930666 -2.66991,-2.587573 v -0.08234 c -0.0405,-0.246563 -0.12284,-0.492681 0.247,-0.739244 0.28751,-0.205172 0.6983,-0.451732 1.14959,-0.738797 0.6983,-0.411233 1.43754,-0.862968 1.88928,-1.232812 0.0823,-0.08189 0.0823,-0.163781 0.0823,-0.246119 0,-0.08234 -0.0823,-0.16467 -0.16467,-0.205172 -2.87419,-0.944858 -4.31173,-3.080695 -4.31173,-6.284231 0,-2.094446 0.94442,-3.98372 2.62807,-5.174697 1.15004,-0.90347 4.02512,-2.012559 5.91439,-2.012559 h 0.12328 c 1.93022,0.04095 2.99792,0.451735 4.51735,0.985808 0.82158,0.287506 1.60221,0.410344 2.67035,0.410344 1.60133,0 2.29962,-0.492682 2.87419,-1.067251 0.0414,0.08189 0.12373,0.287507 0.16468,0.821132 0.0409,0.534073 -0.12329,1.314258 -0.53408,1.889274 -0.32845,0.451735 -1.06769,0.780633 -1.80693,0.780633 h -0.20562 c -0.73924,-0.08234 -1.06814,-0.164669 -1.06814,-0.164669 l -0.16379,0.08233 c -0.0409,0.08234 0,0.164229 0.041,0.28751 l 0.0414,0.08234 c 0.0819,0.3694 0.24612,1.478042 0.24612,1.765993 0,3.36776 -1.3552,4.845802 -2.79275,5.954888 -1.39659,1.026752 -2.99791,1.683658 -4.8053,1.848328 -0.0409,0 -0.20472,0 -0.57501,0.04095 -0.20518,0 -0.49268,0.04139 -0.53407,0.04139 h -0.041 c -0.32845,0.08189 -1.14958,0.492678 -1.14958,1.190532 0,0.61596 0.3694,1.355649 2.13539,1.478931 0.36939,0.04094 0.7388,0.04094 1.15003,0.08233 2.34101,0.163781 5.25704,0.369401 6.61224,0.821135 1.88928,0.697851 3.08025,2.381953 3.08025,4.394509 0,3.039752 -2.17633,5.873443 -5.79066,7.638991 -1.76599,0.780633 -3.53243,1.191424 -5.46265,1.191424 z m 23.41009,-28.626187 c -0.86208,0 -1.64271,0.204727 -2.21772,0.615519 -1.60132,0.985804 -2.4229,2.957413 -2.4229,5.832051 0,5.380761 2.71041,9.15931 6.57129,9.15931 1.15003,0 2.0535,-0.328898 2.83369,-0.985805 1.19098,-0.986252 1.80738,-2.957417 1.80738,-5.709214 0,-5.338929 -2.66991,-8.912306 -6.57129,-8.912306 z m 0.73969,17.578044 c -6.98208,0 -9.48732,-5.133753 -9.48732,-9.939053 0,-3.367761 1.3552,-5.955333 4.06561,-7.803661 1.93067,-1.19098 4.23074,-1.847886 6.28424,-1.847886 5.33892,0 9.07653,3.819495 9.07653,9.323093 0,3.737161 -1.47849,6.69413 -4.31263,8.501515 -1.3552,0.903469 -3.69621,1.765992 -5.62687,1.765992 z M 139.01431,36.333294 c -0.86252,0 -1.64271,0.205172 -2.21817,0.615964 -1.60132,0.985804 -2.4229,2.957413 -2.4229,5.832051 0,5.380761 2.71041,9.15931 6.57129,9.15931 1.15004,0 2.05351,-0.328898 2.83414,-0.985805 1.19053,-0.986252 1.80694,-2.957417 1.80694,-5.709214 0,-5.338929 -2.62852,-8.912306 -6.5713,-8.912306 z m 0.73925,17.578489 c -6.98209,0 -9.48732,-5.133753 -9.48732,-9.939053 0,-3.367761 1.3552,-5.955333 4.06561,-7.803661 1.93066,-1.19098 4.23073,-1.847886 6.28423,-1.847886 5.33937,0 9.07653,3.819495 9.07653,9.323093 0,3.737161 -1.47849,6.69413 -4.31262,8.501515 -1.31426,0.903469 -3.65527,1.765992 -5.62643,1.765992 z M 92.809639,53.500995 c -0.08234,-0.122837 -0.164672,-0.492681 -0.123282,-0.944416 0,-0.328898 0.08234,-0.53407 0.123282,-0.61596 0.862524,-0.123726 1.314259,-0.247008 1.806939,-0.369845 0.821578,-0.205616 1.150032,-0.656907 1.190977,-1.683658 0.123727,-2.464291 0.123727,-7.146754 0.08234,-10.391233 v -0.08234 c 0,-0.3694 0,-0.821579 -0.451735,-1.150033 -0.657352,-0.410343 -1.43754,-0.779743 -2.46429,-1.068142 -0.369399,-0.12239 -0.615962,-0.328009 -0.575016,-0.574124 0,-0.246564 0.246562,-0.53407 0.780633,-0.616408 1.355204,-0.123282 4.886746,-0.98536 6.283341,-1.601768 0.08234,0.08189 0.205617,0.328901 0.205617,0.657355 l -0.04095,0.451287 c -0.04139,0.452182 -0.08234,0.986252 -0.08234,1.519877 0,0.164225 0.164672,0.287507 0.328454,0.287507 0.08234,0 0.164671,-0.04094 0.246571,-0.08234 2.62851,-2.053503 5.01047,-2.792744 6.24239,-2.792744 2.013,0 3.57382,0.944861 4.7648,2.916026 0.0819,0.123726 0.16423,0.164672 0.28751,0.164672 0.0819,0 0.20473,-0.04095 0.24612,-0.123281 2.42334,-1.848331 4.84669,-2.957417 6.44801,-2.957417 3.81949,0 6.07861,2.834135 6.07861,7.639435 0,1.355205 0,3.121198 -0.0409,4.72341 0,1.437095 -0.041,2.751353 -0.041,3.696214 0,0.204728 0.28707,0.862079 0.7388,0.98536 0.57502,0.287507 1.35565,0.410788 2.3824,0.575017 h 0.041 c 0.0823,0.287506 -0.0819,1.355205 -0.24612,1.560821 -0.24656,0 -0.61641,0 -1.02675,-0.04095 a 60.620577,60.620577 0 0 0 -3.12165,-0.08233 c -2.54618,0 -3.86044,0.04094 -5.13419,0.123282 -0.0815,-0.328454 -0.12284,-1.314258 0,-1.560821 0.73968,-0.122837 1.10908,-0.246563 1.56126,-0.3694 0.82158,-0.246563 1.02675,-0.616408 1.06814,-1.684103 0,-0.780188 0.16378,-7.433819 -0.0828,-9.035584 -0.24612,-1.642714 -1.47848,-3.572932 -4.18934,-3.572932 -1.02675,0 -2.62807,0.410788 -4.18889,1.60132 -0.0819,0.08234 -0.16467,0.28751 -0.16467,0.410791 v 0.04139 c 0.16467,0.862082 0.16467,1.848331 0.16467,3.367761 v 2.669462 c 0,1.848331 -0.0414,3.573381 0,4.887194 0,0.903915 0.53407,1.109086 0.9858,1.273759 0.24657,0.0405 0.41035,0.08189 0.61597,0.122834 0.36939,0.08234 0.73924,0.164673 1.31425,0.28751 0.0823,0.164669 0.0823,0.698298 -0.0409,1.150029 -0.0414,0.246563 -0.12373,0.369401 -0.16467,0.410792 -1.39615,-0.04095 -2.83369,-0.08234 -4.92814,-0.08234 -0.61596,0 -1.6841,0.04139 -2.58757,0.04139 -0.73969,0 -1.43754,0.04095 -1.84789,0.04095 -0.0414,-0.08234 -0.12372,-0.3694 -0.12372,-0.82158 0,-0.3694 0.0823,-0.656906 0.16467,-0.739241 0.20517,-0.04095 0.3694,-0.08189 0.57502,-0.08189 0.49223,-0.08234 0.90347,-0.164673 1.31381,-0.246564 0.69874,-0.205171 0.94486,-0.575016 0.9858,-1.478486 0.12329,-2.053503 0.24657,-7.926498 -0.0409,-9.405428 -0.49268,-2.381956 -1.84788,-3.572933 -4.02511,-3.572933 -1.27287,0 -2.87508,0.61596 -4.188901,1.602213 -0.205617,0.16378 -0.369844,0.574124 -0.369844,0.943968 v 2.423344 c 0,2.956973 0,6.653631 0.04095,8.255399 0.04139,0.492234 0.205172,1.067695 1.150035,1.272867 0.20561,0.04095 0.53407,0.123281 0.94486,0.164673 l 0.73879,0.122837 c 0.0828,0.246563 0.0414,1.232367 -0.12283,1.560821 -0.41079,0 -0.90347,-0.04095 -1.47893,-0.04095 -0.862081,-0.04139 -1.971168,-0.08233 -3.203091,-0.08233 -1.43754,0 -2.464291,0.04094 -3.285869,0.08233 -0.575016,-0.08233 -1.026751,-0.08233 -1.519431,-0.08233 z"
       id="path4771" />
    <g
       id="g4818"
       transform="matrix(0.24206815,0,0,0.24206815,30.88931,-23.252079)">
      <path
         id="path4773"
         d="m -102.66721,358.6903 -4.8873,-1.67044 c 0,0 0.59686,-24.91579 -8.34574,-26.7038 -5.95959,-6.9156 0.95601,-293.280544 22.414649,-0.95472 0,0 -7.392309,3.69487 -8.703599,10.01489 -1.43144,6.19988 -0.47801,19.31407 -0.47801,19.31407 z"
         inkscape:connector-curvature="0"
         style="fill:#ffffff;fill-rule:evenodd;stroke-width:1.29191077" />
      <path
         id="path4775"
         d="m -102.66721,358.6903 -4.8873,-1.67044 c 0,0 0.59686,-24.91579 -8.34574,-26.7038 -5.95959,-6.9156 0.95601,-293.280544 22.414649,-0.95472 0,0 -7.392309,3.69487 -8.703599,10.01489 -1.43144,6.19988 -0.47801,19.31407 -0.47801,19.31407 z"
         inkscape:connector-curvature="0"
         style="fill:#a6a385;fill-rule:evenodd;stroke-width:1.29191077" />
      <path
         id="path4777"
         d="m -100.04334,334.60779 c 0,0 42.801005,-28.13653 32.78482,-86.6743 -9.655741,-42.55941 -32.426961,-56.50817 -34.93068,-61.87348 -2.74144,-3.81501 -5.36531,-10.49032 -5.36531,-10.49032 l 1.7893,118.38296 c 0,0.12015 -3.69616,36.24326 5.72316,40.65643"
         inkscape:connector-curvature="0"
         style="fill:#ffffff;fill-rule:evenodd;stroke-width:1.29191077" />
      <path
         id="path4779"
         d="m -100.04334,334.60779 c 0,0 42.801005,-28.13653 32.78482,-86.6743 -9.655741,-42.55941 -32.426961,-56.50817 -34.93068,-61.87348 -2.74144,-3.81501 -5.36531,-10.49032 -5.36531,-10.49032 l 1.7893,118.38296 c 0,0.12015 -3.69616,36.24326 5.72316,40.65643"
         inkscape:connector-curvature="0"
         style="fill:#499d4a;fill-rule:evenodd;stroke-width:1.29191077" />
      <path
         id="path4781"
         d="m -110.05694,336.15679 c 0,0 -40.17843,-27.42081 -37.79356,-75.70339 2.26472,-48.28387 30.63896,-72.00852 36.12312,-76.30025 3.5773,-3.81501 3.69616,-5.24645 3.93516,-9.06146 2.50372,5.3653 2.02701,80.23541 2.38357,89.05658 1.07229,33.97725 -1.90686,65.57222 -4.64829,72.00852 z"
         inkscape:connector-curvature="0"
         style="fill:#ffffff;fill-rule:evenodd;stroke-width:1.29191077" />
      <path
         id="path4783"
         d="m -110.05694,336.15679 c 0,0 -40.17843,-27.42081 -37.79356,-75.70339 2.26472,-48.28387 30.63896,-72.00852 36.12312,-76.30025 3.5773,-3.81501 3.69616,-5.24645 3.93516,-9.06146 2.50372,5.3653 2.02701,80.23541 2.38357,89.05658 1.07229,33.97725 -1.90686,65.57222 -4.64829,72.00852 z"
         inkscape:connector-curvature="0"
         style="fill:#58aa50;fill-rule:evenodd;stroke-width:1.29191077" />
    </g>
  </g>
</svg>
